<?xml version="1.0" encoding="utf-8"?>
<!-- Generator: Adobe Adobe Illustrator 29.2.0, SVG Export Plug-In . SVG Version: 6.00 Build 0)  -->
<svg version="1.1" id="레이어_2" xmlns="http://www.w3.org/2000/svg" xmlns:xlink="http://www.w3.org/1999/xlink" x="0px"
	 y="0px" width="612px" height="792px" viewBox="0 0 612 792" style="enable-background:new 0 0 612 792;" xml:space="preserve">
<style type="text/css">
	.st0{fill:#D74F39;}
	.st1{fill:#F5CF4C;}
	.st2{fill:#7BB14A;}
	.st3{fill:#F0BE4C;}
</style>
<g>
	<path class="st0" d="M459.72,223.55c-13.58-10.66-29.66-15.33-46.92-15.93c-3.76-0.13-7.77,1.28-11.74-1.46
		c-0.03,0-0.05-0.01-0.08-0.01c-3.21,1.93-6.84,2.4-10.49,2.93c-11.25,1.62-21.12,6.68-30.62,12.62c-3.15,1.97-5.62,2.08-9.33-0.13
		c-8.37-4.99-18.05-6.79-27.69-7.63c-6.47-0.56-13.04-0.07-20.13,0.01c-0.3,0.07-0.52,0.12-0.7,0.17c0.08,0.19,0.04,0.5-0.02,0.68
		c-0.1,0.03-0.18,0.04-0.27,0.03c0.24,34.35,0.33,68.22,0.34,102.1c0.02,65.27-0.01,130.53-0.07,196.37
		c-0.08,0.32-0.14,0.54-0.22,0.72c0.21,0.12,0.23,0.35,0.22,0.89c-0.01,0.09-0.06,0.15-0.13,0.18c0.11,0.17,0.24,0.35,0.39,0.57
		c12.28,1.01,23.29-2.56,33.58-8.13c4.23-2.29,7.45-2.41,11.79-0.52c13.34,5.81,26.96,9.72,41.95,6.98
		c16.12-2.94,30.07-9.78,41.23-21.59c9.84-10.41,16.56-23.01,22.37-36.08c4.22-9.5,8.36-19.07,10.53-29.23
		c1.52-7.12,4.61-13.61,6.7-20.49c4.69-15.5,7.77-31.38,11.73-47.04c3.49-13.81,6.7-27.74,6.72-42.22
		c0.01-4.98,0.34-10.22,1.32-15.08c2.58-12.72-0.02-25.09-2.71-37.11C483.67,248.07,473.34,234.24,459.72,223.55z"/>
	<path class="st1" d="M301.02,513.66c-1-2.95-0.88-5.42-0.88-7.87c-0.02-94.22-0.02-188.43-0.01-282.65c0-1.84,0.01-3.69,0.25-6.1
		c0.17-0.94,0.27-1.31,0.6-2.18c0.08-0.13,0.17-0.26,0.26-0.38c-0.06-0.08-0.12-0.16-0.19-0.26c0.01-0.03,0.03-0.04,0.04-0.06
		c-15.32-0.82-30.11-0.18-43.57,7.76c-0.93,0.55-1.97,0.64-2.88,0.01c-13.3-9.31-28.85-11.89-44.64-15.18
		c-0.42,0.03-0.84,0.06-1.27,0.1c-5.22,0.56-10.11,0.65-15,0.83c-13.86,0.51-26.89,5.07-37.96,12.55
		c-16.39,11.09-27.15,26.89-31.75,46.77c-3.25,14.03-4.05,27.82-2.55,42.18c1.47,14.08,3.61,28.06,6.32,41.86
		c5.75,29.27,14.11,57.88,23.52,86.22c5.45,16.41,12.4,31.86,22.09,46.04c14.11,20.64,34.14,31.34,58.86,31.49
		c11.69,0.07,23.43-2.98,33.8-9.36c2.55-1.57,4.43-1.11,7.13,0.49c8.49,5.02,17.4,9.25,27.97,8.8c0.02-0.15,0.1-0.29,0.23-0.42
		C301.27,514.11,301.16,513.91,301.02,513.66z"/>
	<path class="st1" d="M301.24,214.49c-0.09,0.12-0.17,0.24-0.26,0.38c-0.33,0.87-0.42,1.23-0.6,2.18c-0.24,2.42-0.25,4.26-0.25,6.1
		c-0.01,94.22-0.01,188.43,0.01,282.65c0,2.45-0.12,4.92,0.88,7.87c0.14,0.25,0.25,0.45,0.36,0.64c0.09-0.1,0.21-0.2,0.36-0.3
		c0.02,0.01,0.03,0.02,0.05,0.03c0.08-0.18,0.15-0.4,0.22-0.72c0.06-65.84,0.09-131.11,0.07-196.37
		c-0.01-33.88-0.1-67.76-0.34-102.1C301.55,214.8,301.4,214.69,301.24,214.49z"/>
	<path class="st2" d="M237.52,212.01c11.85,5.63,22.78,8.29,35.59,2.5c7.88-3.56,17.16-2.97,26.44-1.85
		c0.88,0.34,1.38,0.68,1.83,1.33c0.08-0.01,0.17-0.02,0.29-0.02c1.29-1.4,2.84-1.62,4.39-1.72c15.87-1.01,31.34,0.59,45.77,7.85
		c3.25,1.64,5.81,0.83,8.55-0.84c10.75-6.51,22.23-11.04,34.75-12.71c1.79-0.24,3.54-0.81,5.86-0.4c0.14-0.08,0.27-0.16,0.41-0.25
		c-7.71-9-16.99-15.07-28.38-16.45c-11.31-1.37-22.27,0.88-31.98,7.24c-4.15-3.68-7.9-6.78-13.17-8.42
		c-5.5-1.71-13.36-1.4-13.16-11.36c0.1-4.77,0.73-6.15,5.28-6.19c4.01-0.04,7.99,0.17,12.1-0.67c8.06-1.64,14.93-5.63,22.15-9.12
		c9.2-4.44,15.78-11.24,20.46-20.15c6.2-11.8,7.94-24.75,9.58-37.68c0.58-4.59-2.01-7.05-6.76-7.35c-7.56-0.47-15,0.24-22.15,2.58
		c-14,4.59-26.89,10.66-34.46,24.6c-5.92,10.91-9.56,22.35-10.85,34.88c-3.37-10.31-9.77-18.61-16.52-26.76
		c-5.55-6.7-12.42-11.54-20.48-14.19c-5.24-1.72-17.78,5.66-20.71,11.08c-2.02,3.75-0.4,13.26,2.66,14.88
		c4.42,2.35,8.11,5.57,12.03,8.62c10.61,8.27,13.2,19.66,15.38,31.6c0.24,1.33-0.13,2.73-1.36,3.13
		c-7.46,2.39-13.61,8.43-22.94,5.27c-18.89-6.4-37.66-0.18-48.62,15.19c0.17,0.04,0.34,0.07,0.52,0.11
		C219.82,206.06,229.16,208.03,237.52,212.01z"/>
	<path class="st2" d="M395.13,206.55c-12.52,1.67-24,6.2-34.75,12.71c-2.75,1.66-5.3,2.48-8.55,0.84
		c-14.43-7.26-29.89-8.86-45.77-7.85c-1.55,0.1-3.1,0.32-4.39,1.72c0.06,0,0.11,0,0.18,0c0.09,0.01,0.14,0.07,0.18,0.15
		c0.18-0.04,0.39-0.1,0.7-0.17c7.09-0.08,13.66-0.57,20.13-0.01c9.64,0.83,19.32,2.64,27.69,7.63c3.72,2.21,6.18,2.11,9.33,0.13
		c9.49-5.94,19.37-11,30.62-12.62c3.65-0.53,7.28-1,10.49-2.93C398.67,205.73,396.92,206.31,395.13,206.55z"/>
	<path class="st2" d="M257.51,221.93c13.46-7.94,28.25-8.58,43.57-7.76c0.06-0.1,0.15-0.16,0.3-0.18c-0.45-0.65-0.95-1-1.83-1.33
		c-9.28-1.11-18.56-1.71-26.44,1.85c-12.81,5.79-23.74,3.13-35.59-2.5c-8.36-3.98-17.7-5.95-27.52-5.26
		c15.79,3.29,31.34,5.87,44.64,15.18C255.54,222.57,256.58,222.48,257.51,221.93z"/>
	<path class="st3" d="M301.25,514.72c-0.03,0-0.06,0-0.1,0c-0.01,0.1,0,0.2,0.03,0.31c0.18,0.08,0.51,0.16,0.69,0.06
		c-0.14-0.21-0.26-0.4-0.39-0.62C301.42,514.55,301.34,514.63,301.25,514.72z"/>
	<path class="st3" d="M302,514.91c0.01-0.54-0.01-0.77-0.22-0.89c-0.08,0.17-0.17,0.31-0.3,0.45c0.13,0.22,0.25,0.41,0.39,0.62
		C301.94,515.06,301.99,515,302,514.91z"/>
	<path class="st3" d="M301.48,514.48c-0.03-0.06-0.07-0.12-0.11-0.18c-0.13,0.13-0.21,0.27-0.23,0.42c0.03,0,0.06,0,0.1,0
		C301.34,514.63,301.42,514.55,301.48,514.48z"/>
	<path class="st3" d="M301.38,514.3c0.04,0.06,0.07,0.12,0.11,0.18c0.13-0.14,0.22-0.28,0.3-0.45c-0.02-0.01-0.03-0.02-0.05-0.03
		C301.59,514.1,301.47,514.2,301.38,514.3z"/>
	<path class="st3" d="M301.73,214.57c0,0.08,0,0.17,0,0.25c0.08,0.01,0.17,0,0.27-0.03c0.06-0.18,0.1-0.49,0.02-0.68
		c-0.19,0.04-0.34,0.07-0.51,0.07C301.58,214.3,301.66,214.43,301.73,214.57z"/>
	<path class="st3" d="M301.24,214.17c-0.05,0-0.1-0.01-0.15-0.01c-0.01,0.02-0.03,0.04-0.04,0.06c0.07,0.1,0.13,0.18,0.19,0.26
		c0.08-0.11,0.16-0.21,0.24-0.3C301.4,214.19,301.32,214.18,301.24,214.17z"/>
	<path class="st3" d="M301.51,214.18c-0.01,0-0.03,0-0.04,0c-0.08,0.1-0.16,0.2-0.24,0.3c0.16,0.2,0.32,0.32,0.5,0.33
		c0-0.08,0-0.17,0-0.25C301.66,214.43,301.58,214.3,301.51,214.18z"/>
	<path class="st3" d="M301.67,213.97c-0.11,0-0.21,0.01-0.29,0.02c0.04,0.06,0.08,0.11,0.12,0.17
		C301.55,214.09,301.61,214.03,301.67,213.97z"/>
	<path class="st3" d="M301.84,213.96c-0.07,0-0.12,0-0.18,0c-0.06,0.06-0.12,0.13-0.17,0.19c0.01,0.01,0.01,0.02,0.02,0.03
		c0.17,0,0.32-0.03,0.51-0.07C301.99,214.03,301.93,213.98,301.84,213.96z"/>
	<path class="st3" d="M301.47,214.19c0.01-0.01,0.01-0.02,0.02-0.03c-0.04-0.06-0.08-0.12-0.12-0.17c-0.15,0.02-0.24,0.08-0.3,0.18
		c0.05,0,0.1,0.01,0.15,0.01C301.32,214.18,301.4,214.19,301.47,214.19z"/>
	<path class="st3" d="M301.51,214.18c-0.01-0.01-0.01-0.02-0.02-0.03c-0.01,0.01-0.01,0.02-0.02,0.03
		C301.49,214.19,301.5,214.18,301.51,214.18z"/>
</g>
</svg>
