<svg width="371" height="421" viewBox="0 0 371 421" fill="none" xmlns="http://www.w3.org/2000/svg">
<path d="M338.979 127.937C325.399 117.277 309.319 112.607 292.059 112.007C288.299 111.877 284.289 113.287 280.319 110.547C280.289 110.547 280.269 110.537 280.239 110.537C277.029 112.467 273.399 112.937 269.749 113.467C258.499 115.087 248.629 120.147 239.129 126.087C235.979 128.057 233.509 128.167 229.799 125.957C221.429 120.967 211.749 119.167 202.109 118.327C195.639 117.767 189.069 118.257 181.979 118.337C181.679 118.407 181.459 118.457 181.279 118.507C181.359 118.697 181.319 119.007 181.259 119.187C181.159 119.217 181.079 119.227 180.989 119.217C181.229 153.567 181.319 187.437 181.329 221.317C181.349 286.587 181.319 351.847 181.259 417.687C181.179 418.007 181.119 418.227 181.039 418.407C181.249 418.527 181.269 418.757 181.259 419.297C181.249 419.387 181.199 419.447 181.129 419.477C181.239 419.647 181.369 419.827 181.519 420.047C193.799 421.057 204.809 417.487 215.099 411.917C219.329 409.627 222.549 409.507 226.889 411.397C240.229 417.207 253.849 421.117 268.839 418.377C284.959 415.437 298.909 408.597 310.069 396.787C319.909 386.377 326.629 373.777 332.439 360.707C336.659 351.207 340.799 341.637 342.969 331.477C344.489 324.357 347.579 317.867 349.669 310.987C354.359 295.487 357.439 279.607 361.399 263.947C364.889 250.137 368.099 236.207 368.119 221.727C368.129 216.747 368.459 211.507 369.439 206.647C372.019 193.927 369.419 181.557 366.729 169.537C362.929 152.457 352.599 138.627 338.979 127.937Z" fill="#D74F39"/>
<path d="M180.279 418.047C179.279 415.097 179.399 412.627 179.399 410.177C179.379 315.957 179.379 221.747 179.389 127.527C179.389 125.687 179.399 123.837 179.639 121.427C179.809 120.487 179.909 120.117 180.239 119.247C180.319 119.117 180.409 118.987 180.499 118.867C180.439 118.787 180.379 118.707 180.309 118.607C180.319 118.577 180.339 118.567 180.349 118.547C165.029 117.727 150.239 118.367 136.779 126.307C135.849 126.857 134.809 126.947 133.899 126.317C120.599 117.007 105.049 114.427 89.2586 111.137C88.8386 111.167 88.4186 111.197 87.9886 111.237C82.7686 111.797 77.8786 111.887 72.9886 112.067C59.1286 112.577 46.0986 117.137 35.0286 124.617C18.6386 135.707 7.87857 151.507 3.27857 171.387C0.0285723 185.417 -0.771423 199.207 0.728577 213.567C2.19858 227.647 4.33858 241.627 7.04858 255.427C12.7986 284.697 21.1586 313.307 30.5686 341.647C36.0186 358.057 42.9686 373.507 52.6586 387.687C66.7686 408.327 86.7986 419.027 111.519 419.177C123.209 419.247 134.949 416.197 145.319 409.817C147.869 408.247 149.749 408.707 152.449 410.307C160.939 415.327 169.849 419.557 180.419 419.107C180.439 418.957 180.519 418.817 180.649 418.687C180.529 418.497 180.419 418.297 180.279 418.047Z" fill="#F5CF4C"/>
<path d="M180.498 118.877C180.408 118.997 180.328 119.117 180.238 119.257C179.908 120.127 179.818 120.487 179.638 121.437C179.398 123.857 179.388 125.697 179.388 127.537C179.378 221.757 179.378 315.967 179.398 410.187C179.398 412.637 179.278 415.107 180.278 418.057C180.418 418.307 180.528 418.507 180.638 418.697C180.728 418.597 180.848 418.497 180.998 418.397C181.018 418.407 181.028 418.417 181.048 418.427C181.128 418.247 181.198 418.027 181.268 417.707C181.328 351.867 181.358 286.597 181.338 221.337C181.328 187.457 181.238 153.577 180.998 119.237C180.808 119.187 180.658 119.077 180.498 118.877Z" fill="#F5CF4C"/>
<path d="M116.779 116.397C128.629 122.027 139.559 124.687 152.369 118.897C160.249 115.337 169.529 115.927 178.809 117.047C179.689 117.387 180.189 117.727 180.639 118.377C180.719 118.367 180.809 118.357 180.929 118.357C182.219 116.957 183.769 116.737 185.319 116.637C201.189 115.627 216.659 117.227 231.089 124.487C234.339 126.127 236.899 125.317 239.639 123.647C250.389 117.137 261.869 112.607 274.389 110.937C276.179 110.697 277.929 110.127 280.249 110.537C280.389 110.457 280.519 110.377 280.659 110.287C272.949 101.287 263.669 95.217 252.279 93.837C240.969 92.467 230.009 94.717 220.299 101.077C216.149 97.397 212.399 94.297 207.129 92.657C201.629 90.947 193.769 91.257 193.969 81.297C194.069 76.527 194.699 75.147 199.249 75.107C203.259 75.067 207.239 75.277 211.349 74.437C219.409 72.797 226.279 68.807 233.499 65.317C242.699 60.877 249.279 54.077 253.959 45.167C260.159 33.367 261.899 20.417 263.539 7.48703C264.119 2.89703 261.529 0.437036 256.779 0.137036C249.219 -0.332964 241.779 0.377038 234.629 2.71704C220.629 7.30704 207.739 13.377 200.169 27.317C194.249 38.227 190.609 49.667 189.319 62.197C185.949 51.887 179.549 43.587 172.799 35.437C167.249 28.737 160.379 23.897 152.319 21.247C147.079 19.527 134.539 26.907 131.609 32.327C129.589 36.077 131.209 45.587 134.269 47.207C138.689 49.557 142.379 52.777 146.299 55.827C156.909 64.097 159.499 75.487 161.679 87.427C161.919 88.757 161.549 90.157 160.319 90.557C152.859 92.947 146.709 98.987 137.379 95.827C118.489 89.427 99.7188 95.647 88.7588 111.017C88.9288 111.057 89.0988 111.087 89.2788 111.127C99.0788 110.447 108.419 112.417 116.779 116.397Z" fill="#7BB14A"/>
<path d="M274.389 110.937C261.869 112.607 250.389 117.137 239.639 123.647C236.889 125.307 234.339 126.127 231.089 124.487C216.659 117.227 201.199 115.627 185.319 116.637C183.769 116.737 182.219 116.957 180.929 118.357C180.989 118.357 181.039 118.357 181.109 118.357C181.199 118.367 181.249 118.427 181.289 118.507C181.469 118.467 181.679 118.407 181.989 118.337C189.079 118.257 195.649 117.767 202.119 118.327C211.759 119.157 221.439 120.967 229.809 125.957C233.529 128.167 235.989 128.067 239.139 126.087C248.629 120.147 258.509 115.087 269.759 113.467C273.409 112.937 277.039 112.467 280.249 110.537C277.929 110.117 276.179 110.697 274.389 110.937Z" fill="#7BB14A"/>
<path d="M136.769 126.317C150.229 118.377 165.019 117.737 180.339 118.557C180.399 118.457 180.489 118.397 180.639 118.377C180.189 117.727 179.689 117.377 178.809 117.047C169.529 115.937 160.249 115.337 152.369 118.897C139.559 124.687 128.629 122.027 116.779 116.397C108.419 112.417 99.0788 110.447 89.2588 111.137C105.049 114.427 120.599 117.007 133.899 126.317C134.799 126.957 135.839 126.867 136.769 126.317Z" fill="#7BB14A"/>
<path d="M180.509 419.107C180.479 419.107 180.449 419.107 180.409 419.107C180.399 419.207 180.409 419.307 180.439 419.417C180.619 419.497 180.949 419.577 181.129 419.477C180.989 419.267 180.869 419.077 180.739 418.857C180.679 418.937 180.599 419.017 180.509 419.107Z" fill="#F0BE4C"/>
<path d="M181.259 419.297C181.269 418.757 181.249 418.527 181.039 418.407C180.959 418.577 180.869 418.717 180.739 418.857C180.869 419.077 180.989 419.267 181.129 419.477C181.199 419.447 181.249 419.387 181.259 419.297Z" fill="#F0BE4C"/>
<path d="M180.738 418.867C180.708 418.807 180.668 418.747 180.628 418.687C180.498 418.817 180.418 418.957 180.398 419.107C180.428 419.107 180.458 419.107 180.498 419.107C180.598 419.017 180.678 418.937 180.738 418.867Z" fill="#F0BE4C"/>
<path d="M180.639 418.687C180.679 418.747 180.709 418.807 180.749 418.867C180.879 418.727 180.969 418.587 181.049 418.417C181.029 418.407 181.019 418.397 180.999 418.387C180.849 418.487 180.729 418.587 180.639 418.687Z" fill="#F0BE4C"/>
<path d="M180.989 118.957C180.989 119.037 180.989 119.127 180.989 119.207C181.069 119.217 181.159 119.207 181.259 119.177C181.319 118.997 181.359 118.687 181.279 118.497C181.089 118.537 180.939 118.567 180.769 118.567C180.839 118.687 180.919 118.817 180.989 118.957Z" fill="#F0BE4C"/>
<path d="M180.499 118.557C180.449 118.557 180.399 118.547 180.349 118.547C180.339 118.567 180.319 118.587 180.309 118.607C180.379 118.707 180.439 118.787 180.499 118.867C180.579 118.757 180.659 118.657 180.739 118.567C180.659 118.577 180.579 118.567 180.499 118.557Z" fill="#F0BE4C"/>
<path d="M180.769 118.567C180.759 118.567 180.739 118.567 180.729 118.567C180.649 118.667 180.569 118.767 180.489 118.867C180.649 119.067 180.809 119.187 180.989 119.197C180.989 119.117 180.989 119.027 180.989 118.947C180.919 118.817 180.839 118.687 180.769 118.567Z" fill="#F0BE4C"/>
<path d="M180.929 118.357C180.819 118.357 180.719 118.367 180.639 118.377C180.679 118.437 180.719 118.487 180.759 118.547C180.809 118.477 180.869 118.417 180.929 118.357Z" fill="#F0BE4C"/>
<path d="M181.099 118.347C181.029 118.347 180.979 118.347 180.919 118.347C180.859 118.407 180.799 118.477 180.749 118.537C180.759 118.547 180.759 118.557 180.769 118.567C180.939 118.567 181.089 118.537 181.279 118.497C181.249 118.417 181.189 118.367 181.099 118.347Z" fill="#F0BE4C"/>
<path d="M180.729 118.577C180.739 118.567 180.739 118.557 180.749 118.547C180.709 118.487 180.669 118.427 180.629 118.377C180.479 118.397 180.389 118.457 180.329 118.557C180.379 118.557 180.429 118.567 180.479 118.567C180.579 118.567 180.659 118.577 180.729 118.577Z" fill="#F0BE4C"/>
<path d="M180.769 118.567C180.759 118.557 180.759 118.547 180.749 118.537C180.739 118.547 180.739 118.557 180.729 118.567C180.749 118.577 180.759 118.567 180.769 118.567Z" fill="#F0BE4C"/>
</svg>
